<svg id="first_x5F_class_x5F_chairs" fill="#0F1B1A" enable-background="new 0 0 300 300" height="512" viewBox="0 0 300 300" width="512" xmlns="http://www.w3.org/2000/svg"><path d="m254.026 36.738c-3.611.035-7.258 1.441-9.906 4.082-2.65 2.637-4.113 6.152-4.119 9.891-.014 7.719 6.256 14.012 13.975 14.027h.029c3.729 0 7.234-1.449 9.877-4.082 2.65-2.637 4.113-6.152 4.119-9.891.013-7.718-6.257-14.011-13.975-14.027zm4.208 18.25c-1.131 1.129-2.633 1.75-4.23 1.75-.004 0-.008 0-.014 0-3.309-.008-5.996-2.703-5.99-6.012.002-1.602.629-3.109 1.766-4.238 1.131-1.129 2.633-1.75 4.23-1.75h.014c3.309.008 5.996 2.703 5.99 6.012-.002 1.602-.629 3.109-1.766 4.238z"/><path d="m45.975 60.738h.029c3.729 0 7.234-1.449 9.877-4.082 2.65-2.637 4.113-6.152 4.119-9.891.014-7.719-6.256-14.012-13.975-14.027-.01 0-.02 0-.029 0-3.729 0-7.234 1.449-9.877 4.082-2.65 2.637-4.113 6.152-4.119 9.891-.014 7.719 6.256 14.012 13.975 14.027zm-4.209-18.25c1.131-1.129 2.633-1.75 4.23-1.75h.014c3.309.008 5.996 2.703 5.99 6.012-.002 1.602-.629 3.109-1.766 4.238-1.131 1.129-2.633 1.75-4.23 1.75-.004 0-.008 0-.014 0-3.309-.008-5.996-2.703-5.99-6.012.002-1.601.629-3.109 1.766-4.238z"/><path d="m257.557 162.227c-2.478.345-4.207 2.632-3.862 5.11.344 2.478 2.632 4.207 5.11 3.862s4.207-2.633 3.863-5.11-2.633-4.207-5.111-3.862z"/><path d="m126.805 43.199c2.478-.345 4.207-2.633 3.863-5.11s-2.632-4.207-5.11-3.862-4.207 2.632-3.862 5.11c.343 2.477 2.631 4.206 5.109 3.862z"/><path d="m86.805 79.199c2.478-.345 4.207-2.633 3.863-5.11s-2.632-4.207-5.11-3.862-4.207 2.632-3.862 5.11c.343 2.477 2.631 4.206 5.109 3.862z"/><path d="m153.979 52.781c.781.785 1.809 1.176 2.834 1.176 1.021 0 2.043-.391 2.824-1.168l4.525-4.509 4.512 4.529c.781.785 1.809 1.176 2.834 1.176 1.021 0 2.043-.387 2.822-1.168 1.566-1.559 1.57-4.09.012-5.656l-4.512-4.529 4.53-4.514c1.564-1.559 1.568-4.09.01-5.656s-4.092-1.566-5.658-.008l-4.527 4.511-4.51-4.527c-1.561-1.566-4.096-1.566-5.656-.008-1.566 1.559-1.57 4.09-.012 5.656l4.51 4.527-4.528 4.512c-1.565 1.559-1.569 4.09-.01 5.656z"/><path d="m224 140.738c11.027 0 20-8.973 20-20v-12c0-11.027-8.973-20-20-20s-20 8.973-20 20v12c0 11.028 8.973 20 20 20zm-12-32c0-6.617 5.383-12 12-12s12 5.383 12 12v12c0 6.617-5.383 12-12 12s-12-5.383-12-12z"/><path d="m152 140.738c11.027 0 20-8.973 20-20v-12c0-11.027-8.973-20-20-20s-20 8.973-20 20v12c0 11.028 8.973 20 20 20zm-12-32c0-6.617 5.383-12 12-12s12 5.383 12 12v12c0 6.617-5.383 12-12 12s-12-5.383-12-12z"/><path d="m237 196.738h-37.371c-7.31-12.163-20.737-19.768-35.356-19.855l-45.3-.069-3.335-7.337c3.986-2.427 7.044-6.051 8.598-10.516 1.773-5.094 1.455-10.574-.893-15.43l-10.277-21.258c-4.848-10.023-16.945-14.23-26.975-9.391l-1.447.7c-11.544-10.598-26.823-16.844-43.04-16.844h-5.604c-1.359 0-2.627.691-3.363 1.836-.736 1.141-.842 2.582-.277 3.82l51.451 113.191c5.84 12.848 18.734 21.152 32.852 21.152.215 0 .4-.09.605-.122.206.032.391.122.605.122h22.127v18.469c0 7.461 6.07 13.531 13.531 13.531h24.51c7.461 0 13.531-6.07 13.531-13.531v-18.469h45.428c10.477 0 19-8.973 19-20s-8.523-19.999-19-19.999zm-72.756-11.855c10.048.062 19.368 4.52 25.561 11.855h-61.775l-5.418-11.919zm-58.381-59.125 10.277 21.258c1.42 2.93 1.609 6.238.539 9.316-.83 2.384-2.356 4.392-4.361 5.842l-12.79-28.139c-2.375-5.226-5.438-10.001-9.011-14.293 5.857-2.25 12.572.273 15.346 6.016zm-13.615 11.59 26.995 59.391h-35.213l-41.817-91.996c21.522.234 41.113 12.98 50.035 32.605zm91.324 117.859c0 3.051-2.48 5.531-5.531 5.531h-24.51c-3.051 0-5.531-2.48-5.531-5.531v-18.469h35.572zm53.428-26.469h-49.428-43.572-26.127c-.215 0-.4.09-.605.122-.206-.032-.391-.122-.605-.122-10.988 0-21.023-6.461-25.57-16.465l-3.425-7.535h149.332c6.066 0 11 5.383 11 12s-4.933 12-11 12z"/></svg>